<svg width="41" height="25" fill="none" xmlns="http://www.w3.org/2000/svg"><path d="M23.678 20.29c6.424 1.998 16.798-.043 16.89-8.941.093-8.898-10.98-3.598-10.98-3.598l-5.91 12.54Z" fill="#FFC250"/><path d="M37.445 6.356c-4.483-.768-7.887 5.174-11.654 11.373-3.767 6.199-13.576 8.656-19.844 3.443C-.32 15.959-2.973 6.829 4.723 1.384 12.418-4.062 17.222 8.3 23.847 8.64c6.625.34 6.673-4.586 13.598-2.285Z" fill="#FFD064"/><ellipse rx="1.967" ry="1.968" transform="matrix(-1 0 0 1 5.372 11.626)" fill="#FFE19D"/><circle r="1.476" transform="matrix(-1 0 0 1 9.143 13.101)" fill="#FFE19D"/><circle r="1.148" transform="matrix(-1 0 0 1 6.52 15.07)" fill="#FFE19D"/></svg>